<?xml version="1.0" standalone="no"?>
<!DOCTYPE svg PUBLIC "-//W3C//DTD SVG 20010904//EN"
 "http://www.w3.org/TR/2001/REC-SVG-20010904/DTD/svg10.dtd">
<svg version="1.0" xmlns="http://www.w3.org/2000/svg"
 width="700.000000pt" height="700.000000pt" viewBox="0 0 700.000000 700.000000"
 preserveAspectRatio="xMidYMid meet">
<metadata>
Created by potrace 1.11, written by Peter Selinger 2001-2013
</metadata>
<g transform="translate(0.000000,700.000000) scale(0.100000,-0.100000)"
fill="#000000" stroke="none">
<path d="M807 6993 c-2 -5 -3 -1578 -3 -3498 l1 -3490 788 -3 787 -2 0 3500 0
3500 -784 0 c-432 0 -787 -3 -789 -7z"/>
<path d="M4200 3500 l0 -3500 438 0 437 0 0 3498 0 3497 -438 3 -437 2 0
-3500z"/>
<path d="M6370 3500 l0 -3500 158 0 157 0 0 3498 0 3497 -157 3 -158 3 0
-3501z"/>
</g>
</svg>
